<svg width="14" height="14" viewBox="0 0 14 14" fill="none" xmlns="http://www.w3.org/2000/svg">
<g id="&#208;&#186;&#208;&#190;&#208;&#191;&#208;&#184;&#209;&#128;&#208;&#190;&#208;&#178;&#208;&#176;&#209;&#130;&#209;&#140;">
<path id="Vector" d="M4.66699 12.8332C4.34616 12.8332 4.07151 12.7189 3.84303 12.4905C3.61456 12.262 3.50033 11.9873 3.50033 11.6665V10.4998H2.33366C2.01283 10.4998 1.73817 10.3856 1.5097 10.1571C1.28123 9.92866 1.16699 9.654 1.16699 9.33317V8.74984C1.16699 8.58456 1.22289 8.44602 1.3347 8.33421C1.44651 8.22241 1.58505 8.1665 1.75033 8.1665C1.9156 8.1665 2.05414 8.22241 2.16595 8.33421C2.27776 8.44602 2.33366 8.58456 2.33366 8.74984V9.33317H3.50033V4.6665C3.50033 4.34567 3.61456 4.07102 3.84303 3.84255C4.07151 3.61407 4.34616 3.49984 4.66699 3.49984H9.33366V2.33317H8.75033C8.58505 2.33317 8.44651 2.27727 8.3347 2.16546C8.2229 2.05366 8.16699 1.91511 8.16699 1.74984C8.16699 1.58456 8.2229 1.44602 8.3347 1.33421C8.44651 1.22241 8.58505 1.1665 8.75033 1.1665H9.33366C9.65449 1.1665 9.92914 1.28074 10.1576 1.50921C10.3861 1.73768 10.5003 2.01234 10.5003 2.33317V3.49984H11.667C11.9878 3.49984 12.2625 3.61407 12.491 3.84255C12.7194 4.07102 12.8337 4.34567 12.8337 4.6665V11.6665C12.8337 11.9873 12.7194 12.262 12.491 12.4905C12.2625 12.7189 11.9878 12.8332 11.667 12.8332H4.66699ZM4.66699 11.6665H11.667V4.6665H4.66699V11.6665ZM1.75033 6.99984C1.58505 6.99984 1.44651 6.94393 1.3347 6.83213C1.22289 6.72032 1.16699 6.58178 1.16699 6.4165V5.24984C1.16699 5.08456 1.22289 4.94602 1.3347 4.83421C1.44651 4.72241 1.58505 4.6665 1.75033 4.6665C1.9156 4.6665 2.05414 4.72241 2.16595 4.83421C2.27776 4.94602 2.33366 5.08456 2.33366 5.24984V6.4165C2.33366 6.58178 2.27776 6.72032 2.16595 6.83213C2.05414 6.94393 1.9156 6.99984 1.75033 6.99984ZM1.75033 3.49984C1.58505 3.49984 1.44651 3.44393 1.3347 3.33213C1.22289 3.22032 1.16699 3.08178 1.16699 2.9165V2.33317C1.16699 2.01234 1.28123 1.73768 1.5097 1.50921C1.73817 1.28074 2.01283 1.1665 2.33366 1.1665H2.91699C3.08227 1.1665 3.22081 1.22241 3.33262 1.33421C3.44442 1.44602 3.50033 1.58456 3.50033 1.74984C3.50033 1.91511 3.44442 2.05366 3.33262 2.16546C3.22081 2.27727 3.08227 2.33317 2.91699 2.33317H2.33366V2.9165C2.33366 3.08178 2.27776 3.22032 2.16595 3.33213C2.05414 3.44393 1.9156 3.49984 1.75033 3.49984ZM5.25033 2.33317C5.08505 2.33317 4.94651 2.27727 4.8347 2.16546C4.72289 2.05366 4.66699 1.91511 4.66699 1.74984C4.66699 1.58456 4.72289 1.44602 4.8347 1.33421C4.94651 1.22241 5.08505 1.1665 5.25033 1.1665H6.41699C6.58227 1.1665 6.72081 1.22241 6.83262 1.33421C6.94442 1.44602 7.00033 1.58456 7.00033 1.74984C7.00033 1.91511 6.94442 2.05366 6.83262 2.16546C6.72081 2.27727 6.58227 2.33317 6.41699 2.33317H5.25033Z" fill="#2F80ED"/>
</g>
</svg>
